<?xml version="1.0" encoding="UTF-8"?>
<svg version="1.1" xmlns="http://www.w3.org/2000/svg" width="246" height="246">
<path d="M0 0 C1.86688477 0.00290039 1.86688477 0.00290039 3.77148438 0.00585938 C5.72344727 0.02422852 5.72344727 0.02422852 7.71484375 0.04296875 C9.67260742 0.04393555 9.67260742 0.04393555 11.66992188 0.04492188 C21.37178056 0.09018716 21.37178056 0.09018716 23.65234375 1.23046875 C24.81426004 4.71621763 24.81272389 7.50158602 24.85766602 11.18041992 C24.86756561 11.88311508 24.87746521 12.58581024 24.88766479 13.30979919 C24.91923609 15.63097776 24.94401988 17.9521768 24.96875 20.2734375 C24.98932331 21.88341298 25.01031988 23.49338311 25.03172302 25.10334778 C25.08690481 29.33983013 25.13633124 33.57636091 25.18457031 37.81292725 C25.23481376 42.13639636 25.29048498 46.45979519 25.34570312 50.78320312 C25.45323709 59.26556556 25.55469262 67.74798682 25.65234375 76.23046875 C26.60583952 74.80819272 27.55826785 73.38520105 28.51025391 71.96191406 C29.04075348 71.1695636 29.57125305 70.37721313 30.11782837 69.56085205 C32.18448293 66.42233853 34.11767316 63.21599257 36.02734375 59.98046875 C36.80672407 58.67153687 37.58668235 57.36294897 38.3671875 56.0546875 C38.75116699 55.41063965 39.13514648 54.7665918 39.53076172 54.10302734 C41.83282032 50.25958166 44.18391023 46.44683772 46.546875 42.640625 C48.11073702 40.12119453 49.64147622 37.58363503 51.1640625 35.0390625 C52.03497037 33.60275186 52.90606175 32.16655247 53.77734375 30.73046875 C54.37083618 29.72415405 54.37083618 29.72415405 54.97631836 28.69750977 C57.67807689 24.27964147 60.43549166 21.26753674 64.65234375 18.23046875 C65.31234375 18.23046875 65.97234375 18.23046875 66.65234375 18.23046875 C66.06920382 22.11806826 64.89696423 24.85812072 62.90234375 28.23046875 C60.07948096 33.25113185 57.9538169 38.29403156 56.02198792 43.7147522 C54.65234375 47.23046875 54.65234375 47.23046875 53.11753845 50.12069702 C47.32484826 61.32250066 47.86627461 72.33742885 48.03125 84.70703125 C48.0399253 86.96755161 48.04605907 89.22808301 48.04978943 91.48861694 C48.06691317 97.40587648 48.12086604 103.32225213 48.18206787 109.23919678 C48.22570044 114.05332401 48.24323058 118.86737881 48.25933933 123.68166542 C48.27903122 129.46100346 48.30946784 135.24026292 48.34375 141.01953125 C48.3533887 142.65051191 48.3533887 142.65051191 48.36322212 144.31444168 C46.97159875 161.64688794 46.97159875 161.64688794 50.65234375 177.23046875 C58.64523539 178.44394762 66.78338828 178.28772094 74.84375 178.22265625 C76.34329727 178.21096405 76.34329727 178.21096405 77.87313843 178.19903564 C82.0527218 178.1621549 86.23206502 178.11973041 90.41137695 178.05908203 C93.49303464 178.01687079 96.57438325 177.99336795 99.65625 177.97265625 C100.601017 177.95403534 101.545784 177.93541443 102.5191803 177.91622925 C106.13907481 177.90199885 108.90899099 177.90782113 112.25268555 179.35913086 C114.2884589 182.08095237 114.10628863 184.05790375 114.04296875 187.4296875 C114.03007812 188.63818359 114.0171875 189.84667969 114.00390625 191.09179688 C113.95363281 192.98575195 113.95363281 192.98575195 113.90234375 194.91796875 C113.88429687 196.19220703 113.86625 197.46644531 113.84765625 198.77929688 C113.80044816 201.93043716 113.73460759 205.08008015 113.65234375 208.23046875 C100.44170069 216.37444165 84.87400086 215.54528208 69.86328125 215.53125 C68.1030772 215.53514809 66.34287407 215.539485 64.58267212 215.54423523 C60.92699095 215.55162985 57.27140653 215.55145208 53.61572266 215.54614258 C48.93630777 215.540301 44.25728269 215.55742345 39.57793236 215.58048725 C35.95766905 215.59520964 32.33750061 215.59609929 28.71721268 215.59297752 C26.99086346 215.59348966 25.26450879 215.59870713 23.53818893 215.60878944 C21.13375841 215.62113257 18.73010178 215.61437982 16.32568359 215.6027832 C15.61916656 215.61042694 14.91264954 215.61807068 14.1847229 215.62594604 C9.84661073 215.57972461 7.10601158 214.88628583 3.65234375 212.23046875 C2.50699942 209.93978008 2.53674252 208.69989636 2.5546875 206.15600586 C2.55795044 205.30607056 2.56121338 204.45613525 2.5645752 203.58044434 C2.57291382 202.64897583 2.58125244 201.71750732 2.58984375 200.7578125 C2.59842818 198.74080455 2.60688616 196.72379605 2.61523438 194.70678711 C2.62143799 193.63975555 2.6276416 192.572724 2.6340332 191.47335815 C2.73343121 173.53019644 2.63489652 155.60520801 2.15234375 137.66796875 C2.12833496 136.77399384 2.10432617 135.88001892 2.07958984 134.95895386 C1.94574756 130.04918423 1.80326246 125.139742 1.65234375 120.23046875 C1.25966309 120.94066162 0.86698242 121.65085449 0.46240234 122.38256836 C-1.34530603 125.64658955 -3.15893517 128.90728509 -4.97265625 132.16796875 C-5.59011719 133.28494141 -6.20757812 134.40191406 -6.84375 135.55273438 C-10.05275163 141.31204782 -13.36292717 146.90347302 -17.08349609 152.34643555 C-18.66804631 154.70796008 -20.02786697 157.15015646 -21.34765625 159.66796875 C-23.79539835 164.2599071 -26.41152327 168.71168157 -29.1484375 173.13671875 C-30.48243462 175.30630294 -30.48243462 175.30630294 -31.34765625 178.23046875 C-32.00765625 178.23046875 -32.66765625 178.23046875 -33.34765625 178.23046875 C-33.55390625 179.01421875 -33.76015625 179.79796875 -33.97265625 180.60546875 C-35.43038266 184.44856565 -37.27018989 187.61646867 -39.4375 191.09375 C-40.94490968 193.56910781 -42.37976517 196.05507665 -43.7890625 198.5859375 C-44.22089844 199.35059326 -44.65273437 200.11524902 -45.09765625 200.90307617 C-45.96148757 202.43486635 -46.81468412 203.97271081 -47.65625 205.5168457 C-50.72431115 210.89755565 -50.72431115 210.89755565 -54.15625 212.73046875 C-54.87941406 212.89546875 -55.60257813 213.06046875 -56.34765625 213.23046875 C-57.66986295 209.26384865 -56.33761707 207.01757748 -54.78515625 203.35546875 C-54.51356689 202.69506592 -54.24197754 202.03466309 -53.9621582 201.35424805 C-51.65467763 195.8042164 -49.14447115 190.35768093 -46.546875 184.9375 C-45.53852667 182.66132609 -44.906399 180.63713843 -44.34765625 178.23046875 C-44.91049316 178.25665283 -45.47333008 178.28283691 -46.05322266 178.30981445 C-61.73725853 178.94107532 -74.78994343 178.31038288 -87.22265625 167.47265625 C-96.36046564 157.83092355 -97.84886357 147.00114495 -98.34765625 134.23046875 C-98.39229004 133.28703613 -98.43692383 132.34360352 -98.48291016 131.37158203 C-98.62003848 128.19967922 -98.70749164 125.02934629 -98.78515625 121.85546875 C-98.83172363 120.83332275 -98.87829102 119.81117676 -98.92626953 118.75805664 C-99.01839972 112.27664464 -98.00832467 108.58887634 -93.84008789 103.57177734 C-92.34765625 102.23046875 -92.34765625 102.23046875 -90.34765625 102.23046875 C-90.34765625 101.57046875 -90.34765625 100.91046875 -90.34765625 100.23046875 C-85.56078357 97.0392203 -80.06594384 97.89720597 -74.46875 97.91479492 C-72.35494575 97.91795784 -70.24253779 97.89447862 -68.12890625 97.86914062 C-66.78515801 97.8668678 -65.44140602 97.86616406 -64.09765625 97.8671875 C-62.875625 97.86420654 -61.65359375 97.86122559 -60.39453125 97.8581543 C-57.34765625 98.23046875 -57.34765625 98.23046875 -55.45336914 99.30615234 C-53.73606888 102.29483874 -53.94167633 104.96130751 -53.90625 108.3828125 C-53.89304214 109.0793544 -53.87983429 109.7758963 -53.8662262 110.49354553 C-53.82535315 112.71839378 -53.80367302 114.94283023 -53.78515625 117.16796875 C-53.76133189 119.38940981 -53.73313658 121.61046496 -53.69337463 123.8316803 C-53.65792786 125.84978648 -53.63802577 127.86814781 -53.61889648 129.88647461 C-53.36665028 132.99630021 -53.08471781 134.68813444 -51.34765625 137.23046875 C-45.86926364 141.22700106 -39.94845197 140.57348355 -33.47265625 140.41796875 C-32.40273437 140.40443359 -31.3328125 140.39089844 -30.23046875 140.37695312 C-27.60234114 140.34175499 -24.97526431 140.29251568 -22.34765625 140.23046875 C-20.76394615 137.06304855 -20.94865483 133.62327858 -20.77368164 130.13720703 C-20.73093392 129.29623034 -20.68818621 128.45525364 -20.6441431 127.5887928 C-20.20291861 117.74098424 -20.34423157 107.90460344 -20.48644829 98.05111313 C-20.56440386 92.25955439 -20.60411953 86.46766434 -20.65039062 80.67578125 C-20.71044214 73.3589359 -20.78207371 66.04278412 -20.89624023 58.7265625 C-20.98835417 52.7588753 -21.04114892 46.79196753 -21.06773567 40.82364273 C-21.08495223 38.56456162 -21.11647152 36.30554012 -21.16293144 34.04687119 C-21.55824928 14.26388229 -21.55824928 14.26388229 -16.42602539 8.28173828 C-12.95366349 5.23046875 -12.95366349 5.23046875 -10.34765625 5.23046875 C-10.01765625 4.24046875 -9.68765625 3.25046875 -9.34765625 2.23046875 C-5.78347096 -0.14565477 -4.22543125 -0.01516837 0 0 Z M23.65234375 78.23046875 C24.65234375 80.23046875 24.65234375 80.23046875 24.65234375 80.23046875 Z " fill="#2B2B2B" transform="translate(116.34765625,19.76953125)"/>
<path d="M0 0 C0.33 0 0.66 0 1 0 C1.00331015 0.59414577 1.00662029 1.18829155 1.01003075 1.80044174 C1.09124312 16.25581585 1.18332978 30.7110904 1.28752708 45.16631699 C1.33765373 52.15675416 1.38409661 59.1471796 1.421875 66.13769531 C1.45832777 72.88100615 1.50503601 79.62417402 1.55806351 86.36737823 C1.57662914 88.94301371 1.59172902 91.51867652 1.60334396 94.09435272 C1.62016906 97.69552221 1.64919565 101.29639844 1.68115234 104.89746094 C1.68331253 105.9677655 1.68547272 107.03807007 1.68769836 108.14080811 C1.69886185 109.12234863 1.71002533 110.10388916 1.7215271 111.11517334 C1.72705786 111.96691006 1.73258862 112.81864677 1.73828697 113.6961937 C2.0219733 116.19342647 2.74710277 117.83910778 4 120 C5.95825873 120.02694851 7.91662226 120.04637218 9.875 120.0625 C10.96554688 120.07410156 12.05609375 120.08570313 13.1796875 120.09765625 C15.95177546 120.19744303 15.95177546 120.19744303 18 119 C19.45932129 118.89543004 20.92322061 118.85134339 22.38623047 118.83886719 C23.29412323 118.82925964 24.20201599 118.8196521 25.13742065 118.80975342 C26.61240524 118.8033786 26.61240524 118.8033786 28.1171875 118.796875 C29.63023972 118.78832489 29.63023972 118.78832489 31.17385864 118.77960205 C33.31071928 118.770145 35.44759456 118.76361528 37.58447266 118.75976562 C40.85475084 118.7500601 44.12440067 118.71904308 47.39453125 118.6875 C49.46874626 118.68097007 51.54296577 118.67571956 53.6171875 118.671875 C54.5964621 118.6595282 55.57573669 118.6471814 56.58468628 118.63446045 C57.49888336 118.63746155 58.41308044 118.64046265 59.35498047 118.64355469 C60.15725067 118.63990906 60.95952087 118.63626343 61.78610229 118.63250732 C64.58206081 119.09661832 65.9593742 120.05817541 68 122 C68.45410156 124.8190918 68.45410156 124.8190918 68.390625 128.19921875 C68.37773437 129.40771484 68.36484375 130.61621094 68.3515625 131.86132812 C68.31804687 133.12396484 68.28453125 134.38660156 68.25 135.6875 C68.23195313 136.96173828 68.21390625 138.23597656 68.1953125 139.54882812 C68.14810441 142.69996841 68.08226384 145.8496114 68 149 C63.99688092 150.3232408 59.92725352 150.14768723 55.76245117 150.14526367 C54.52023048 150.15030159 54.52023048 150.15030159 53.25291443 150.15544128 C50.51625059 150.16493678 47.77964804 150.16689379 45.04296875 150.16796875 C43.13731359 150.17118263 41.23165867 150.1745468 39.32600403 150.17805481 C35.33053007 150.1840428 31.33507774 150.18589508 27.33959961 150.18530273 C22.22857363 150.18520121 17.11768686 150.19884527 12.00669384 150.21607494 C8.06980253 150.22721354 4.13294465 150.22922136 0.1960392 150.22869301 C-1.68774584 150.22987063 -3.5715318 150.23428016 -5.45530128 150.24202538 C-8.09505477 150.25186145 -10.7345089 150.24893282 -13.37426758 150.24291992 C-14.14697998 150.24853943 -14.91969238 150.25415894 -15.71582031 150.25994873 C-20.42882337 150.23277382 -24.59116611 149.85348609 -29 148 C-31.82589535 143.90663554 -31.26805755 138.79053872 -31.22705078 133.98706055 C-31.22734283 133.08900192 -31.22763489 132.1909433 -31.22793579 131.26567078 C-31.2265457 128.30592082 -31.21099953 125.34642457 -31.1953125 122.38671875 C-31.19158123 120.33120359 -31.1887348 118.27568665 -31.18673706 116.22016907 C-31.17910959 110.81638661 -31.15946863 105.41271206 -31.1373291 100.00897217 C-31.11685164 94.49232442 -31.10773127 88.97565919 -31.09765625 83.45898438 C-31.07622196 72.63927557 -31.04209664 61.81964677 -31 51 C-32.65 51.99 -34.3 52.98 -36 54 C-35.57811541 52.1838018 -35.13700835 50.37205927 -34.6875 48.5625 C-34.44386719 47.55316406 -34.20023437 46.54382813 -33.94921875 45.50390625 C-33.63597656 44.67761719 -33.32273438 43.85132813 -33 43 C-31.515 42.505 -31.515 42.505 -30 42 C-30 41.01 -30 40.02 -30 39 C-29.34 39 -28.68 39 -28 39 C-27.9175 38.4225 -27.835 37.845 -27.75 37.25 C-26.78865284 34.36595852 -25.19629215 33.06318353 -23 31 C-22.34 30.01 -21.68 29.02 -21 28 C-20.34 28 -19.68 28 -19 28 C-18.731875 27.278125 -18.46375 26.55625 -18.1875 25.8125 C-17.00191473 23.00453489 -15.58881706 20.59885076 -14 18 C-13.44441406 17.05640625 -12.88882813 16.1128125 -12.31640625 15.140625 C-11.73761719 14.18671875 -11.15882813 13.2328125 -10.5625 12.25 C-9.69818359 10.80367187 -9.69818359 10.80367187 -8.81640625 9.328125 C-6.82153539 6.77125826 -6.08355227 6.48790384 -3 6 C-1.75825204 4.0998823 -1.75825204 4.0998823 -1 2 C-0.67 1.34 -0.34 0.68 0 0 Z M-39 54 C-38.01 54.33 -37.02 54.66 -36 55 C-37.98 55.99 -37.98 55.99 -40 57 C-39.67 56.01 -39.34 55.02 -39 54 Z " fill="#151515" transform="translate(162,79)"/>
<path d="M0 0 C0.66163651 0.0028299 1.32327301 0.00565979 2.00495911 0.00857544 C4.11416862 0.01975332 6.2229505 0.04485269 8.33203125 0.0703125 C9.76366573 0.08034543 11.19530689 0.08947074 12.62695312 0.09765625 C16.13295102 0.11968455 19.63869938 0.15419765 23.14453125 0.1953125 C25.47826657 3.87851027 25.39798975 7.08059393 25.41796875 11.375 C25.43826013 12.79297661 25.45911096 14.2109453 25.48046875 15.62890625 C25.50303292 17.8495148 25.51952992 20.06980952 25.52539062 22.29052734 C25.53496061 24.44425252 25.56878655 26.59658901 25.60546875 28.75 C25.61368652 30.03374512 25.6219043 31.31749023 25.63037109 32.64013672 C26.23101733 36.79332311 27.54004098 38.94389272 30.14453125 42.1953125 C35.55743608 46.19175626 41.57097184 45.64100316 48.01953125 45.5703125 C49.07011719 45.58191406 50.12070313 45.59351563 51.203125 45.60546875 C57.55949274 45.58160254 62.35095694 44.83383188 68.14453125 42.1953125 C68.4377482 46.20261088 67.90121331 48.10809515 65.51953125 51.3203125 C62.54499108 55.53075317 60.08711729 59.86453104 57.6640625 64.41015625 C55.67812924 68.05018301 53.52451697 71.57570305 51.34375 75.1015625 C50.00975288 77.27114669 50.00975288 77.27114669 49.14453125 80.1953125 C48.48453125 80.1953125 47.82453125 80.1953125 47.14453125 80.1953125 C46.93828125 80.9790625 46.73203125 81.7628125 46.51953125 82.5703125 C45.06180484 86.4134094 43.22199761 89.58131242 41.0546875 93.05859375 C39.54727782 95.53395156 38.11242233 98.0199204 36.703125 100.55078125 C36.27128906 101.31543701 35.83945313 102.08009277 35.39453125 102.86791992 C34.53069993 104.3997101 33.67750338 105.93755456 32.8359375 107.48168945 C29.76787635 112.8623994 29.76787635 112.8623994 26.3359375 114.6953125 C25.61277344 114.8603125 24.88960937 115.0253125 24.14453125 115.1953125 C22.82232455 111.2286924 24.15457043 108.98242123 25.70703125 105.3203125 C25.97862061 104.65990967 26.25020996 103.99950684 26.5300293 103.3190918 C28.83750987 97.76906015 31.34771635 92.32252468 33.9453125 86.90234375 C34.95366083 84.62616984 35.5857885 82.60198218 36.14453125 80.1953125 C35.58169434 80.22149658 35.01885742 80.24768066 34.43896484 80.2746582 C18.75492897 80.90591907 5.70224407 80.27522663 -6.73046875 69.4375 C-15.86827814 59.7957673 -17.35667607 48.9659887 -17.85546875 36.1953125 C-17.90010254 35.25187988 -17.94473633 34.30844727 -17.99072266 33.33642578 C-18.12785098 30.16452297 -18.21530414 26.99419004 -18.29296875 23.8203125 C-18.36281982 22.28709351 -18.36281982 22.28709351 -18.43408203 20.72290039 C-18.52621222 14.24148839 -17.51613717 10.55372009 -13.34790039 5.53662109 C-11.85546875 4.1953125 -11.85546875 4.1953125 -9.85546875 4.1953125 C-9.85546875 3.5353125 -9.85546875 2.8753125 -9.85546875 2.1953125 C-6.1761743 -0.25755046 -4.38168968 -0.03697628 0 0 Z " fill="#1D1D1D" transform="translate(35.85546875,117.8046875)"/>
<path d="M0 0 C-0.00444122 1.15400803 -0.00888245 2.30801605 -0.01345825 3.49699402 C-0.05399578 14.37065564 -0.08398032 25.24430193 -0.10362434 36.11802197 C-0.114063 41.70835201 -0.12822382 47.29862107 -0.15087891 52.88891602 C-0.17260418 58.2835125 -0.18456801 63.6780503 -0.18975449 69.07268715 C-0.19345079 71.13117713 -0.20066869 73.18966388 -0.21146011 75.24812889 C-0.22597071 78.13057784 -0.22797811 81.01278409 -0.22705078 83.89526367 C-0.23424133 84.74690598 -0.24143188 85.59854828 -0.24884033 86.47599792 C-0.31958645 92.54253336 -0.31958645 92.54253336 2 98 C6.69221345 99.45967622 11.69169103 99.13596276 16.57568359 99.11352539 C17.41536682 99.11367142 18.25505005 99.11381744 19.12017822 99.1139679 C21.87962479 99.11327445 24.63900281 99.10550874 27.3984375 99.09765625 C29.31800296 99.09579005 31.2375689 99.0943671 33.15713501 99.09336853 C38.1975436 99.08955925 43.23792316 99.07974257 48.27832031 99.06866455 C53.4264283 99.05841623 58.57454099 99.05386359 63.72265625 99.04882812 C73.81511689 99.03811884 83.90755603 99.02106154 94 99 C94 99.66 94 100.32 94 101 C92.57177447 101.66609217 91.13154335 102.30643284 89.6875 102.9375 C88.48673828 103.47697266 88.48673828 103.47697266 87.26171875 104.02734375 C76.92182154 107.11073825 65.30347381 106.17941636 54.6015625 106.203125 C53.73528606 106.20595238 52.86900963 106.20877975 51.97648239 106.21169281 C47.40603083 106.22657915 42.83561007 106.23587932 38.26513672 106.24023438 C33.55424561 106.24575208 28.8436387 106.26987882 24.1328373 106.29820633 C20.49542397 106.31682148 16.85807995 106.32203736 13.22062302 106.32357025 C11.48310135 106.32659194 9.74558076 106.33460411 8.00810623 106.34775543 C5.58411905 106.3648179 3.16083932 106.36293726 0.73681641 106.35644531 C0.0240152 106.3656601 -0.68878601 106.37487488 -1.42318726 106.3843689 C-5.78048479 106.34782902 -8.53288974 105.67289604 -12 103 C-13.69802737 99.60394525 -13.14114887 95.73558492 -13.1328125 92 C-13.13422241 91.07254974 -13.13563232 90.14509949 -13.13708496 89.18954468 C-13.13923995 86.12632576 -13.13287792 83.06320867 -13.125 80 C-13.1234491 78.95821594 -13.12189819 77.91643188 -13.12030029 76.84307861 C-13.09491016 62.26830297 -12.97835857 47.69495546 -12.68060303 33.12304688 C-12.64367382 31.29790892 -12.60967511 29.47270921 -12.57867432 27.64746094 C-12.53374634 25.10578769 -12.47598857 22.56474642 -12.4140625 20.0234375 C-12.40250122 19.27967865 -12.39093994 18.5359198 -12.37902832 17.7696228 C-12.22840201 12.53260869 -11.75371913 8.6636198 -7.87109375 4.98046875 C-7.06800781 4.38878906 -6.26492187 3.79710937 -5.4375 3.1875 C-4.63183594 2.58292969 -3.82617188 1.97835937 -2.99609375 1.35546875 C-1 0 -1 0 0 0 Z " fill="#2F2F2F" transform="translate(132,129)"/>
<path d="M0 0 C0.07017113 16.15978838 0.12302778 32.31952711 0.15543652 48.47943115 C0.17088637 55.98324689 0.19193972 63.4869678 0.22631836 70.99072266 C0.25627855 77.53320665 0.27558868 84.07562195 0.28226548 90.61817265 C0.28616658 94.08042471 0.29529502 97.54248028 0.31719017 101.00466919 C0.34146991 104.87554528 0.34196575 108.74623148 0.34057617 112.6171875 C0.351362 113.75726761 0.36214783 114.89734772 0.3732605 116.07197571 C0.34764409 122.67340841 0.2571988 129.33787919 -4.38123798 134.552948 C-10.62602621 140.10871814 -17.44697264 139.24477767 -25.375 139.3125 C-26.4990625 139.34150391 -27.623125 139.37050781 -28.78125 139.40039062 C-39.31257021 139.48130502 -39.31257021 139.48130502 -44 135 C-47.07270754 130.86184641 -47.39849386 127.71957627 -47.4765625 122.6171875 C-47.49214203 121.92110382 -47.50772156 121.22502014 -47.52377319 120.50784302 C-47.57106381 118.29690603 -47.59897926 116.08628065 -47.625 113.875 C-47.66156112 111.65679858 -47.70221885 109.43877101 -47.74765015 107.22073364 C-47.78716561 105.21354034 -47.81501958 103.20612755 -47.84228516 101.19873047 C-47.85716203 97.97997127 -47.85716203 97.97997127 -49 95 C-48.34 95 -47.68 95 -47 95 C-45.51130077 97.97739845 -45.81477228 100.73595165 -45.75390625 104.0546875 C-45.72096479 105.48828729 -45.6877532 106.92188089 -45.65429688 108.35546875 C-45.6069125 110.61567894 -45.56248497 112.87586456 -45.52319336 115.13623047 C-45.48339688 117.31764963 -45.43186924 119.4985538 -45.37890625 121.6796875 C-45.3538501 122.98663574 -45.32879395 124.29358398 -45.30297852 125.64013672 C-45.02336655 128.74087795 -44.73042626 130.46086508 -43 133 C-37.52160739 136.99653231 -31.60079572 136.3430148 -25.125 136.1875 C-24.05507812 136.17396484 -22.98515625 136.16042969 -21.8828125 136.14648438 C-19.25468489 136.11128624 -16.62760806 136.06204693 -14 136 C-12.4162899 132.8325798 -12.60099858 129.39280983 -12.42602539 125.90673828 C-12.38327767 125.06576159 -12.34052996 124.22478489 -12.29648685 123.35832405 C-11.85526236 113.51051549 -11.99657532 103.67413469 -12.13879204 93.82064438 C-12.21674761 88.02908564 -12.25646328 82.23719559 -12.30273438 76.4453125 C-12.36278589 69.12846715 -12.43441746 61.81231537 -12.54858398 54.49609375 C-12.64069792 48.52840655 -12.69349267 42.56149878 -12.72007942 36.59317398 C-12.73729598 34.33409287 -12.76881527 32.07507137 -12.81527519 29.81640244 C-13.21058493 10.03381859 -13.21058493 10.03381859 -8.14086914 4.11376953 C-5.75676747 2.02357239 -3.37106497 0 0 0 Z " fill="#494949" transform="translate(108,24)"/>
<path d="M0 0 C-0.58313993 3.88759951 -1.75537952 6.62765197 -3.75 10 C-6.57286279 15.0206631 -8.69852685 20.06356281 -10.63035583 25.48428345 C-12 29 -12 29 -13.5348053 31.89022827 C-19.32749549 43.09203191 -18.78606914 54.1069601 -18.62109375 66.4765625 C-18.61241845 68.73708286 -18.60628468 70.99761426 -18.60255432 73.25814819 C-18.58543058 79.17540773 -18.53147771 85.09178338 -18.47027588 91.00872803 C-18.42664331 95.82285526 -18.40911317 100.63691006 -18.39300442 105.45119667 C-18.37331253 111.23053471 -18.34287591 117.00979417 -18.30859375 122.7890625 C-18.30216795 123.87638294 -18.29574215 124.96370338 -18.28912163 126.08397293 C-19.680745 143.41641919 -19.680745 143.41641919 -16 159 C-14.15108054 159.23363881 -12.29511969 159.41303635 -10.4375 159.5625 C-9.42558594 159.64628906 -8.41367188 159.73007813 -7.37109375 159.81640625 C-6.58863281 159.87699219 -5.80617187 159.93757812 -5 160 C-5 160.66 -5 161.32 -5 162 C-6.93559313 162.13504138 -8.873872 162.23201129 -10.8125 162.3125 C-12.43091797 162.39951172 -12.43091797 162.39951172 -14.08203125 162.48828125 C-17 162 -17 162 -18.65534973 160.15901184 C-20.65591251 155.45905256 -20.43930084 151.02671662 -20.43237305 145.9675293 C-20.44766052 144.29857353 -20.44766052 144.29857353 -20.46325684 142.59590149 C-20.49342664 138.92195628 -20.50265917 135.24827165 -20.51171875 131.57421875 C-20.52856242 129.0254479 -20.54671223 126.47668538 -20.56611633 123.92793274 C-20.6087983 117.90739161 -20.63831607 111.8869254 -20.66143972 105.86628896 C-20.68850828 99.01011697 -20.73241869 92.15408501 -20.77772844 85.29801309 C-20.87052975 71.19875148 -20.94223108 57.09944557 -21 43 C-21.78375 43.825 -22.5675 44.65 -23.375 45.5 C-26 48 -26 48 -28 48 C-28.40605469 48.82371094 -28.40605469 48.82371094 -28.8203125 49.6640625 C-37.3907173 66.63459916 -37.3907173 66.63459916 -43 72 C-43.7734375 73.0828125 -43.7734375 73.0828125 -44.5625 74.1875 C-45.036875 74.785625 -45.51125 75.38375 -46 76 C-46.66 76 -47.32 76 -48 76 C-48.33 77.32 -48.66 78.64 -49 80 C-49.66 80 -50.32 80 -51 80 C-51 80.99 -51 81.98 -51 83 C-52.485 83.495 -52.485 83.495 -54 84 C-54.33 82.68 -54.66 81.36 -55 80 C-53.515 79.505 -53.515 79.505 -52 79 C-51.6278958 77.67696283 -51.29369827 76.34262065 -51 75 C-50.01 74.505 -50.01 74.505 -49 74 C-48.34227572 70.97065509 -48.34227572 70.97065509 -48 68 C-47.01 68.33 -46.02 68.66 -45 69 C-45.226875 68.2575 -45.45375 67.515 -45.6875 66.75 C-46 64 -46 64 -44.8125 62 C-44.214375 61.34 -43.61625 60.68 -43 60 C-39.56459585 55.87751503 -36.78398599 51.57105391 -34 47 C-32.72956675 44.93725354 -31.45869758 42.87477552 -30.1875 40.8125 C-28.14305082 37.48788171 -26.09975355 34.16257621 -24.05859375 30.8359375 C-22.75618362 28.71524545 -21.45011779 26.5967947 -20.140625 24.48046875 C-18.56657565 21.93338418 -17.02187143 19.37008009 -15.484375 16.80078125 C-14.61479567 15.36705869 -13.74500681 13.9334632 -12.875 12.5 C-12.47941895 11.82928467 -12.08383789 11.15856934 -11.67626953 10.4675293 C-5.27511998 0 -5.27511998 0 0 0 Z " fill="#646464" transform="translate(183,38)"/>
<path d="M0 0 C0.66 0.66 1.32 1.32 2 2 C1.68776716 6.62553319 0.12182123 9.86085703 -2.02368164 13.90771484 C-6.69456307 23.91470042 -5.76515436 34.67511844 -5.62109375 45.4765625 C-5.61241845 47.73708286 -5.60628468 49.99761426 -5.60255432 52.25814819 C-5.58543058 58.17540773 -5.53147771 64.09178338 -5.47027588 70.00872803 C-5.42664331 74.82285526 -5.40911317 79.63691006 -5.39300442 84.45119667 C-5.37331253 90.23053471 -5.34287591 96.00979417 -5.30859375 101.7890625 C-5.30216795 102.87638294 -5.29574215 103.96370338 -5.28912163 105.08397293 C-6.680745 122.41641919 -6.680745 122.41641919 -3 138 C-1.15108054 138.23363881 0.70488031 138.41303635 2.5625 138.5625 C3.57441406 138.64628906 4.58632812 138.73007813 5.62890625 138.81640625 C6.41136719 138.87699219 7.19382813 138.93757812 8 139 C8 139.66 8 140.32 8 141 C6.06440687 141.13504138 4.126128 141.23201129 2.1875 141.3125 C0.56908203 141.39951172 0.56908203 141.39951172 -1.08203125 141.48828125 C-4 141 -4 141 -5.65534973 139.15901184 C-7.65591251 134.45905256 -7.43930084 130.02671662 -7.43237305 124.9675293 C-7.44766052 123.29857353 -7.44766052 123.29857353 -7.46325684 121.59590149 C-7.49342664 117.92195628 -7.50265917 114.24827165 -7.51171875 110.57421875 C-7.52856242 108.0254479 -7.54671223 105.47668538 -7.56611633 102.92793274 C-7.6087983 96.90739161 -7.63831607 90.8869254 -7.66143972 84.86628896 C-7.68850828 78.01011697 -7.73241869 71.15408501 -7.77772844 64.29801309 C-7.87052975 50.19875148 -7.94223108 36.09944557 -8 22 C-9.65 23.65 -11.3 25.3 -13 27 C-13.33 26.34 -13.66 25.68 -14 25 C-13.15136719 23.01635742 -13.15136719 23.01635742 -11.796875 20.60546875 C-11.06791016 19.29545898 -11.06791016 19.29545898 -10.32421875 17.95898438 C-9.80472656 17.04439453 -9.28523437 16.12980469 -8.75 15.1875 C-8.24597656 14.28451172 -7.74195313 13.38152344 -7.22265625 12.45117188 C-4.87688298 8.26141149 -2.48271246 4.11033934 0 0 Z " fill="#4F4F4F" transform="translate(170,59)"/>
<path d="M0 0 C0.66 0.33 1.32 0.66 2 1 C-5.34644721 14.54877559 -5.34644721 14.54877559 -10 19 C-10.515625 19.721875 -11.03125 20.44375 -11.5625 21.1875 C-12.2740625 22.0846875 -12.2740625 22.0846875 -13 23 C-13.66 23 -14.32 23 -15 23 C-15.33 24.32 -15.66 25.64 -16 27 C-16.66 27 -17.32 27 -18 27 C-18 27.99 -18 28.98 -18 30 C-18.99 30.33 -19.98 30.66 -21 31 C-21.33 29.68 -21.66 28.36 -22 27 C-21.01 26.67 -20.02 26.34 -19 26 C-18.6278958 24.67696283 -18.29369827 23.34262065 -18 22 C-17.34 21.67 -16.68 21.34 -16 21 C-15.34227572 17.97065509 -15.34227572 17.97065509 -15 15 C-14.01 15.33 -13.02 15.66 -12 16 C-12.226875 15.2575 -12.45375 14.515 -12.6875 13.75 C-13 11 -13 11 -11.875 9 C-10.946875 8.01 -10.946875 8.01 -10 7 C-8.7315625 5.63875 -8.7315625 5.63875 -7.4375 4.25 C-5 2 -5 2 -3 2 C-2.01 1.34 -1.02 0.68 0 0 Z " fill="#505050" transform="translate(150,91)"/>
<path d="M0 0 C2 3 2 3 1.625 6.1875 C1.41875 7.115625 1.2125 8.04375 1 9 C1.66 8.67 2.32 8.34 3 8 C1.64703418 11.57157327 0.08737511 14.8739975 -1.8125 18.1875 C-2.29332031 19.04730469 -2.77414063 19.90710938 -3.26953125 20.79296875 C-5.29174234 23.37208673 -6.90383666 24.05906072 -10 25 C-11.35911081 20.92266756 -9.84578087 18.45368925 -8.25 14.6875 C-7.98445313 14.03587891 -7.71890625 13.38425781 -7.4453125 12.71289062 C-2.77447194 1.38723597 -2.77447194 1.38723597 0 0 Z " fill="#303030" transform="translate(70,208)"/>
<path d="M0 0 C6.4777881 -0.0760544 12.95546108 -0.12860154 19.43359375 -0.16479492 C21.63741356 -0.17988291 23.84120335 -0.20035576 26.04492188 -0.22631836 C29.21231497 -0.26270058 32.37931111 -0.27972632 35.546875 -0.29296875 C37.02519806 -0.31619453 37.02519806 -0.31619453 38.53338623 -0.33988953 C39.4540387 -0.34011612 40.37469116 -0.34034271 41.32324219 -0.34057617 C42.53569611 -0.35056892 42.53569611 -0.35056892 43.77264404 -0.36076355 C46.58127045 0.09414804 47.95327801 1.04897974 50 3 C50.45410156 5.8190918 50.45410156 5.8190918 50.390625 9.19921875 C50.37773437 10.40771484 50.36484375 11.61621094 50.3515625 12.86132812 C50.31804687 14.12396484 50.28453125 15.38660156 50.25 16.6875 C50.23195312 17.96173828 50.21390625 19.23597656 50.1953125 20.54882812 C50.14810441 23.69996841 50.08226384 26.8496114 50 30 C49.01 30.495 49.01 30.495 48 31 C48 22.09 48 13.18 48 4 C32.16 3.34 16.32 2.68 0 2 C0 1.34 0 0.68 0 0 Z " fill="#545454" transform="translate(180,198)"/>
<path d="M0 0 C0 11.22 0 22.44 0 34 C-0.33 34 -0.66 34 -1 34 C-1.33 24.1 -1.66 14.2 -2 4 C-8.0045858 10.50100006 -8.0045858 10.50100006 -9 18 C-8.34 18 -7.68 18 -7 18 C-6.83688059 26.71782637 -7.34344611 35.31238511 -8 44 C-8.33 44 -8.66 44 -9 44 C-9.7946929 36.27154004 -10.29464896 28.58064115 -10.4375 20.8125 C-10.48326172 19.78447266 -10.52902344 18.75644531 -10.57617188 17.69726562 C-10.67150854 11.21851776 -9.758186 7.45470119 -5.59008789 2.43237305 C-3.89505843 0.90546719 -2.39309779 0 0 0 Z " fill="#5A5A5A" transform="translate(28,121)"/>
<path d="M0 0 C0.66 0 1.32 0 2 0 C3.48869923 2.97739845 3.18522772 5.73595165 3.24609375 9.0546875 C3.27903521 10.48828729 3.3122468 11.92188089 3.34570312 13.35546875 C3.3930875 15.61567894 3.43751503 17.87586456 3.47680664 20.13623047 C3.51660312 22.31764963 3.56813076 24.4985538 3.62109375 26.6796875 C3.6461499 27.98663574 3.67120605 29.29358398 3.69702148 30.64013672 C3.97661801 33.74070678 4.26871197 35.4614534 6 38 C11.45000651 41.94502105 17.30979049 41.41250325 23.75 41.3125 C24.80316406 41.31572266 25.85632813 41.31894531 26.94140625 41.32226562 C32.52549915 41.65628407 32.52549915 41.65628407 37 39 C36.67 40.65 36.34 42.3 36 44 C31.95857785 44.11662261 27.91759135 44.1873935 23.875 44.25 C22.73289062 44.28351563 21.59078125 44.31703125 20.4140625 44.3515625 C9.64429143 44.4767924 9.64429143 44.4767924 5 40 C1.92855647 35.86059073 1.60151625 32.72023712 1.5234375 27.6171875 C1.50785797 26.92110382 1.49227844 26.22502014 1.47622681 25.50784302 C1.42893619 23.29690603 1.40102074 21.08628065 1.375 18.875 C1.33843888 16.65679858 1.29778115 14.43877101 1.25234985 12.22073364 C1.21283439 10.21354034 1.18498042 8.20612755 1.15771484 6.19873047 C1.14283797 2.97997127 1.14283797 2.97997127 0 0 Z " fill="#8B8B8B" transform="translate(59,119)"/>
<path d="M0 0 C0.99 0 1.98 0 3 0 C3.66 0.99 4.32 1.98 5 3 C0.89625493 11.15470885 -2.77863675 16.74949927 -11 21 C-9.56083962 13.613466 -4.61777702 5.89164654 0 0 Z " fill="#636363" transform="translate(156,74)"/>
<path d="M0 0 C0.33 0.66 0.66 1.32 1 2 C1.66 2 2.32 2 3 2 C5.29648649 4.5614657 6 5.47967572 6 9 C3.82587539 13.41953199 1.31249685 17.44444631 -3 20 C-2.79375 18.88625 -2.5875 17.7725 -2.375 16.625 C-2.25125 15.42875 -2.1275 14.2325 -2 13 C-2.66 12.34 -3.32 11.68 -4 11 C-3.65561395 6.86736741 -1.93570031 3.61891796 0 0 Z " fill="#222222" transform="translate(73,198)"/>
<path d="M0 0 C0 11.22 0 22.44 0 34 C-0.33 34 -0.66 34 -1 34 C-1.33 24.1 -1.66 14.2 -2 4 C-3.32 4.99 -4.64 5.98 -6 7 C-5.75 4.625 -5.75 4.625 -5 2 C-1.95238095 0 -1.95238095 0 0 0 Z " fill="#454545" transform="translate(28,121)"/>
<path d="M0 0 C0 3.51716303 -0.82445585 4.37121748 -3 7 C-3.33 6.34 -3.66 5.68 -4 5 C-5.34771484 5.73669922 -5.34771484 5.73669922 -6.72265625 6.48828125 C-12.11197058 8.79798739 -17.67828652 8.3207993 -23.4375 8.1875 C-24.55060547 8.17396484 -25.66371094 8.16042969 -26.81054688 8.14648438 C-29.54087212 8.11132997 -32.27017744 8.06212106 -35 8 C-35 7.67 -35 7.34 -35 7 C-34.33991943 6.98541748 -33.67983887 6.97083496 -32.99975586 6.95581055 C-29.97844603 6.88085388 -26.95818405 6.78435194 -23.9375 6.6875 C-22.89916016 6.66494141 -21.86082031 6.64238281 -20.79101562 6.61914062 C-12.42195852 6.32688784 -7.09631492 4.51583677 0 0 Z " fill="#323232" transform="translate(107,156)"/>
<path d="M0 0 C-0.60355408 3.85025879 -1.76772603 6.86101159 -3.5625 10.3125 C-4.01753906 11.19550781 -4.47257813 12.07851563 -4.94140625 12.98828125 C-5.29074219 13.65214844 -5.64007813 14.31601562 -6 15 C-7 13 -8 11 -9 9 C-7.68 8.67 -6.36 8.34 -5 8 C-5.33 6.35 -5.66 4.7 -6 3 C-2.25 0 -2.25 0 0 0 Z " fill="#808080" transform="translate(183,38)"/>
<path d="M0 0 C4.29 0 8.58 0 13 0 C13 0.66 13 1.32 13 2 C11.73392393 2.53229326 10.46189588 3.05044544 9.1875 3.5625 C8.47980469 3.85253906 7.77210938 4.14257812 7.04296875 4.44140625 C5 5 5 5 2 4 C2 3.34 2 2.68 2 2 C1.34 2 0.68 2 0 2 C0 1.34 0 0.68 0 0 Z " fill="#585858" transform="translate(211,229)"/>
<path d="M0 0 C0.33 0 0.66 0 1 0 C1.06058594 0.78246094 1.12117187 1.56492188 1.18359375 2.37109375 C1.26738281 3.38300781 1.35117188 4.39492187 1.4375 5.4375 C1.51871094 6.44683594 1.59992188 7.45617187 1.68359375 8.49609375 C1.73211468 10.93640779 1.73211468 10.93640779 3 12 C4.84891946 12.23363881 6.70488031 12.41303635 8.5625 12.5625 C9.57441406 12.64628906 10.58632812 12.73007813 11.62890625 12.81640625 C12.41136719 12.87699219 13.19382813 12.93757812 14 13 C14 13.66 14 14.32 14 15 C12.04233719 15.08082094 10.08373272 15.13910778 8.125 15.1875 C7.03445312 15.22230469 5.94390625 15.25710937 4.8203125 15.29296875 C3.88960937 15.19628906 2.95890625 15.09960938 2 15 C-0.35119399 11.47320901 -0.21443452 9.97120515 -0.125 5.8125 C-0.10695312 4.72582031 -0.08890625 3.63914063 -0.0703125 2.51953125 C-0.04710937 1.68808594 -0.02390625 0.85664063 0 0 Z " fill="#6F6F6F" transform="translate(164,185)"/>
<path d="M0 0 C0 4.68995172 -3.06098757 6.97813354 -6.125 10.3125 C-8 12 -8 12 -10 12 C-9.40323978 8.70326367 -8.31828226 6.8276819 -6.125 4.3125 C-5.61195312 3.71050781 -5.09890625 3.10851562 -4.5703125 2.48828125 C-3 1 -3 1 0 0 Z " fill="#5D5D5D" transform="translate(107,24)"/>
<path d="M0 0 C0.99 0 1.98 0 3 0 C2.5206753 4.31392226 1.2542015 6.16569547 -2 9 C-2 8.34 -2 7.68 -2 7 C-2.66 6.67 -3.32 6.34 -4 6 C-2.1875 3 -2.1875 3 0 0 Z M-6 7 C-5.01 7.495 -5.01 7.495 -4 8 C-4.99 8.495 -4.99 8.495 -6 9 C-6 8.34 -6 7.68 -6 7 Z " fill="#1E1E1E" transform="translate(141,107)"/>
<path d="M0 0 C0.99 0.99 1.98 1.98 3 3 C3.66 2.67 4.32 2.34 5 2 C4.3125 4.375 4.3125 4.375 3 7 C0.375 8.3125 0.375 8.3125 -2 9 C-3 6 -3 6 -1.5625 2.8125 C-1.046875 1.884375 -0.53125 0.95625 0 0 Z " fill="#5A5A5A" transform="translate(62,224)"/>
<path d="M0 0 C5.94 0 11.88 0 18 0 C18 0.66 18 1.32 18 2 C13.05 1.67 8.1 1.34 3 1 C3 1.66 3 2.32 3 3 C3.66 3 4.32 3 5 3 C5 3.66 5 4.32 5 5 C2.525 4.01 2.525 4.01 0 3 C0 2.01 0 1.02 0 0 Z " fill="#333333" transform="translate(208,228)"/>
<path d="M0 0 C0.33 0.99 0.66 1.98 1 3 C0.01 4.485 0.01 4.485 -1 6 C-1.3626117 7.92744369 -1.3626117 7.92744369 -1.4140625 10.01171875 C-1.45273437 10.76904297 -1.49140625 11.52636719 -1.53125 12.30664062 C-1.5621875 13.09232422 -1.593125 13.87800781 -1.625 14.6875 C-1.66367187 15.48478516 -1.70234375 16.28207031 -1.7421875 17.10351562 C-1.83632494 19.06863475 -1.91924632 21.0342854 -2 23 C-2.33 23 -2.66 23 -3 23 C-3.08733513 19.91684615 -3.14050127 16.83401173 -3.1875 13.75 C-3.21263672 12.87730469 -3.23777344 12.00460938 -3.26367188 11.10546875 C-3.33834499 4.58401668 -3.33834499 4.58401668 -1.48828125 1.390625 C-0.99714844 0.93171875 -0.50601562 0.4728125 0 0 Z " fill="#999999" transform="translate(21,126)"/>
<path d="M0 0 C0.33 0.99 0.66 1.98 1 3 C-1.31 4.65 -3.62 6.3 -6 8 C-5.75 5.625 -5.75 5.625 -5 3 C-3 1.75 -3 1.75 -1 1 C-0.67 0.67 -0.34 0.34 0 0 Z M-9 8 C-8.01 8.33 -7.02 8.66 -6 9 C-7.98 9.99 -7.98 9.99 -10 11 C-9.67 10.01 -9.34 9.02 -9 8 Z " fill="#0F0F0E" transform="translate(132,125)"/>
<path d="M0 0 C0.78375 0.33 1.5675 0.66 2.375 1 C4.84332497 2.11866511 4.84332497 2.11866511 7 2 C7.66 4.31 8.32 6.62 9 9 C5.55862568 7.4705003 2.7777867 5.54630448 0 3 C0 2.01 0 1.02 0 0 Z " fill="#363636" transform="translate(27,182)"/>
<path d="M0 0 C1.125 3.75 1.125 3.75 0 6 C-0.66 6 -1.32 6 -2 6 C-2 6.99 -2 7.98 -2 9 C-2.99 9.33 -3.98 9.66 -5 10 C-5.33 8.68 -5.66 7.36 -6 6 C-5.01 5.67 -4.02 5.34 -3 5 C-2.6278958 3.67696283 -2.29369827 2.34262065 -2 1 C-1.34 0.67 -0.68 0.34 0 0 Z " fill="#5E5E5E" transform="translate(134,112)"/>
<path d="M0 0 C0.66 0.66 1.32 1.32 2 2 C0.6875 4.5 0.6875 4.5 -1 7 C-1.99 7 -2.98 7 -4 7 C-5.125 3.25 -5.125 3.25 -4 1 C-2.0625 0.25 -2.0625 0.25 0 0 Z " fill="#777777" transform="translate(162,69)"/>
<path d="M0 0 C0.66 0.33 1.32 0.66 2 1 C0.68775452 4.93673644 -0.91910327 7.22719294 -4 10 C-4.33 9.34 -4.66 8.68 -5 8 C-4.00390625 6.0546875 -4.00390625 6.0546875 -2.5625 3.875 C-2.08941406 3.15054688 -1.61632812 2.42609375 -1.12890625 1.6796875 C-0.75636719 1.12539062 -0.38382812 0.57109375 0 0 Z " fill="#666665" transform="translate(127,121)"/>
<path d="M0 0 C3.96 0.33 7.92 0.66 12 1 C11.67 1.66 11.34 2.32 11 3 C9.741875 3.020625 8.48375 3.04125 7.1875 3.0625 C6.47980469 3.07410156 5.77210937 3.08570313 5.04296875 3.09765625 C3 3 3 3 0 2 C0 1.34 0 0.68 0 0 Z " fill="#474747" transform="translate(48,195)"/>
<path d="M0 0 C1.68996048 1.68996048 3.3616141 3.38421498 5 5.125 C6.95103635 7.21598078 6.95103635 7.21598078 10 8 C10 8.66 10 9.32 10 10 C6.50832834 9.70902736 5.23799325 9.24460417 2.75 6.6875 C1.20760276 4.31881853 0.40837087 2.75650336 0 0 Z " fill="#777777" transform="translate(61,152)"/>
<path d="M0 0 C0.66 0.33 1.32 0.66 2 1 C2.33 1.99 2.66 2.98 3 4 C3.66 3.34 4.32 2.68 5 2 C4.67 3.65 4.34 5.3 4 7 C3.01 7.33 2.02 7.66 1 8 C0.34 5.69 -0.32 3.38 -1 1 C-0.67 0.67 -0.34 0.34 0 0 Z " fill="#7A7A7A" transform="translate(170,53)"/>
<path d="M0 0 C1.32 0 2.64 0 4 0 C2.66511872 3.59391114 1.03977277 6.75490696 -1 10 C-2.27351308 7.45297384 -1.80191925 6.5717055 -1.0625 3.875 C-0.86785156 3.15054688 -0.67320313 2.42609375 -0.47265625 1.6796875 C-0.31667969 1.12539062 -0.16070312 0.57109375 0 0 Z " fill="#484848" transform="translate(76,204)"/>
<path d="M0 0 C1 3 1 3 -0.25 6.0625 C-2 9 -2 9 -5 11 C-4.34 8.69 -3.68 6.38 -3 4 C-2.34 4 -1.68 4 -1 4 C-0.67 2.68 -0.34 1.36 0 0 Z " fill="#1B1B1B" transform="translate(75,207)"/>
<path d="M0 0 C0.66 0.33 1.32 0.66 2 1 C0.70700306 3.88437779 -0.65941363 5.87219421 -3 8 C-3.33 7.34 -3.66 6.68 -4 6 C-2.68 4.02 -1.36 2.04 0 0 Z " fill="#313131" transform="translate(160,78)"/>
<path d="M0 0 C0.66 0.99 1.32 1.98 2 3 C-0.02882906 5.94180214 -2.05819786 7.97117094 -5 10 C-3.66511872 6.40608886 -2.03977277 3.24509304 0 0 Z " fill="#474747" transform="translate(170,59)"/>
<path d="M0 0 C0 0.99 0 1.98 0 3 C-2.5 5.1875 -2.5 5.1875 -5 7 C-4.75 4.625 -4.75 4.625 -4 2 C-1.9375 0.6875 -1.9375 0.6875 0 0 Z " fill="#535353" transform="translate(27,121)"/>
<path d="M0 0 C1.98 0 3.96 0 6 0 C6 0.66 6 1.32 6 2 C3.69 2.66 1.38 3.32 -1 4 C-0.67 2.68 -0.34 1.36 0 0 Z " fill="#7D7D7D" transform="translate(216,230)"/>
<path d="M0 0 C0.66 0.33 1.32 0.66 2 1 C2 1.99 2 2.98 2 4 C0.68 4.33 -0.64 4.66 -2 5 C-2 5.66 -2 6.32 -2 7 C-2.66 6.67 -3.32 6.34 -4 6 C-2.68 4.02 -1.36 2.04 0 0 Z " fill="#484848" transform="translate(176,42)"/>
</svg>
